<svg aria-hidden="true" xmlns="http://www.w3.org/2000/svg" xmlns:xlink="http://www.w3.org/1999/xlink"><symbol viewBox="0 0 24 28" id="android" xmlns="http://www.w3.org/2000/svg">
<path d="M4.91309 20.7294C4.91309 21.415 5.47266 21.9746 6.16113 21.9746H7.58789V25.5019C7.58789 26.3955 8.30566 27.1249 9.1875 27.1249C10.0723 27.1249 10.7871 26.3984 10.7871 25.5019V21.9716H13.2773V25.499C13.2773 26.3925 13.9951 27.122 14.877 27.122C15.7617 27.122 16.4766 26.3955 16.4766 25.499V21.9716H17.9033C18.5918 21.9716 19.1514 21.4121 19.1514 20.7265V9.14839H4.91309V20.7294ZM15.375 3.14839L16.6904 1.24409C16.7666 1.13276 16.749 0.983346 16.6465 0.910104C16.5439 0.839791 16.3975 0.874948 16.3213 0.986276L14.9561 2.96674C14.0566 2.61225 13.0547 2.41596 12.0029 2.41596C10.9512 2.41596 9.94922 2.61225 9.0498 2.96674L7.68457 0.989205C7.6084 0.877877 7.46191 0.839791 7.35937 0.913034C7.25684 0.983346 7.23926 1.12983 7.31543 1.24702L8.63086 3.15131C6.53906 4.12397 5.07422 5.96674 4.88672 8.12006H19.125C18.9316 5.96381 17.4639 4.12104 15.375 3.14839ZM8.99707 6.15131C8.8412 6.15131 8.68883 6.10509 8.55923 6.0185C8.42963 5.9319 8.32862 5.80882 8.26897 5.66482C8.20932 5.52081 8.19372 5.36235 8.22413 5.20948C8.25454 5.05661 8.32959 4.91618 8.43981 4.80597C8.55002 4.69575 8.69045 4.62069 8.84332 4.59029C8.9962 4.55988 9.15465 4.57548 9.29866 4.63513C9.44266 4.69478 9.56574 4.79579 9.65234 4.92539C9.73894 5.05499 9.78516 5.20736 9.78516 5.36323C9.78461 5.57208 9.70141 5.77221 9.55373 5.91989C9.40605 6.06757 9.20592 6.15077 8.99707 6.15131ZM15.1025 6.15131C14.9467 6.15131 14.7943 6.10509 14.6647 6.0185C14.5351 5.9319 14.4341 5.80882 14.3744 5.66482C14.3148 5.52081 14.2992 5.36235 14.3296 5.20948C14.36 5.05661 14.4351 4.91618 14.5453 4.80597C14.6555 4.69575 14.7959 4.62069 14.9488 4.59029C15.1017 4.55988 15.2601 4.57548 15.4041 4.63513C15.5481 4.69478 15.6712 4.79579 15.7578 4.92539C15.8444 5.05499 15.8906 5.20736 15.8906 5.36323C15.8901 5.57208 15.8069 5.77221 15.6592 5.91989C15.5115 6.06757 15.3114 6.15077 15.1025 6.15131ZM21.6475 9.10151C20.7627 9.10151 20.0478 9.82807 20.0478 10.7246V17.0644C20.0478 17.958 20.7656 18.6874 21.6475 18.6874C22.5322 18.6874 23.2471 17.9609 23.2471 17.0644V10.7216C23.25 9.82514 22.5352 9.10151 21.6475 9.10151ZM2.35254 9.10151C1.46777 9.10151 0.75293 9.82807 0.75293 10.7246V17.0644C0.75293 17.958 1.4707 18.6874 2.35254 18.6874C3.2373 18.6874 3.95215 17.9609 3.95215 17.0644V10.7216C3.95215 9.82514 3.23437 9.10151 2.35254 9.10151Z"/>
</symbol><symbol viewBox="0 0 22 26" id="apple" xmlns="http://www.w3.org/2000/svg">
<path d="M17.8965 13.6943C17.8848 11.6963 18.79 10.1904 20.6182 9.08008C19.5957 7.61523 18.0488 6.80957 16.0098 6.6543C14.0791 6.50195 11.9668 7.7793 11.1934 7.7793C10.376 7.7793 8.50684 6.70703 7.03613 6.70703C4.00098 6.75391 0.775391 9.12695 0.775391 13.9551C0.775391 15.3818 1.03613 16.8555 1.55762 18.373C2.25488 20.3711 4.76855 25.2666 7.39062 25.1875C8.76172 25.1553 9.73144 24.2148 11.5156 24.2148C13.2471 24.2148 14.1436 25.1875 15.6729 25.1875C18.3184 25.1494 20.5918 20.6992 21.2539 18.6953C17.7061 17.0225 17.8965 13.7969 17.8965 13.6943ZM14.8174 4.75879C16.3027 2.99512 16.168 1.38965 16.124 0.8125C14.8115 0.888672 13.2939 1.70605 12.4297 2.71094C11.4775 3.78906 10.918 5.12207 11.0381 6.625C12.4561 6.7334 13.751 6.00391 14.8174 4.75879Z"/>
</symbol><symbol viewBox="0 0 16 16" id="button-arrow" xmlns="http://www.w3.org/2000/svg">
<path fill-rule="evenodd" clip-rule="evenodd" d="M15.5 1.125C15.5 0.95924 15.4341 0.800269 15.3169 0.683058C15.1997 0.565848 15.0408 0.5 14.875 0.5H7.375C7.20923 0.5 7.05026 0.565848 6.93305 0.683058C6.81584 0.800269 6.75 0.95924 6.75 1.125C6.75 1.29076 6.81584 1.44973 6.93305 1.56694C7.05026 1.68415 7.20923 1.75 7.375 1.75H13.3662L0.682496 14.4325C0.624386 14.4906 0.578291 14.5596 0.546842 14.6355C0.515393 14.7114 0.499207 14.7928 0.499207 14.875C0.499207 14.9572 0.515393 15.0386 0.546842 15.1145C0.578291 15.1904 0.624386 15.2594 0.682496 15.3175C0.740606 15.3756 0.809592 15.4217 0.885517 15.4532C0.961441 15.4846 1.04282 15.5008 1.125 15.5008C1.20718 15.5008 1.28855 15.4846 1.36448 15.4532C1.4404 15.4217 1.50939 15.3756 1.5675 15.3175L14.25 2.63375V8.625C14.25 8.79076 14.3158 8.94973 14.4331 9.06694C14.5503 9.18415 14.7092 9.25 14.875 9.25C15.0408 9.25 15.1997 9.18415 15.3169 9.06694C15.4341 8.94973 15.5 8.79076 15.5 8.625V1.125Z"/>
</symbol><symbol viewBox="0 0 22 22" id="dribbble" xmlns="http://www.w3.org/2000/svg">
<path d="M11 0.5C5.20297 0.5 0.5 5.20297 0.5 11C0.5 16.797 5.20297 21.5 11 21.5C16.797 21.5 21.5 16.8022 21.5 11C21.5 5.19781 16.797 0.5 11 0.5ZM17.6666 5.33984C18.8815 6.76805 19.6046 8.54925 19.7291 10.4202C17.8367 10.3217 15.5727 10.3217 13.7572 10.4914C13.5275 9.91156 13.2922 9.34297 13.0353 8.79594C15.1287 7.88844 16.7422 6.69594 17.6666 5.33984ZM11 2.24984C13.0395 2.24634 15.0156 2.95866 16.5837 4.26266C15.6322 5.46547 14.1392 6.51266 12.2797 7.30297C11.2625 5.42188 10.092 3.80328 8.84375 2.52875C9.54819 2.3469 10.2725 2.25322 11 2.24984ZM7.04047 3.20703C8.30375 4.46469 9.49063 6.06641 10.5298 7.94141C8.55547 8.54469 6.29141 8.89062 3.875 8.89062C3.41563 8.89062 2.9675 8.87422 2.52453 8.84656C2.83266 7.63935 3.3949 6.5118 4.17367 5.53927C4.95244 4.56673 5.92981 3.77161 7.04047 3.20703ZM2.26625 10.5842C2.76406 10.6062 3.26703 10.617 3.77562 10.6119C6.53187 10.5791 9.09688 10.1469 11.3009 9.44C11.5087 9.87219 11.7056 10.3152 11.8916 10.7689C11.6252 10.8272 11.3637 10.9056 11.1092 11.0033C8.09609 12.2689 5.72281 14.3084 4.4375 16.775C3.02813 15.1814 2.25007 13.1274 2.24984 11C2.24984 10.8594 2.25547 10.7211 2.26625 10.5842ZM11 19.7502C9.056 19.7525 7.16724 19.1036 5.63516 17.907C6.8 15.5994 8.87797 13.6883 11.4978 12.5037C11.7439 12.3889 12.072 12.2961 12.4494 12.2141C12.7619 13.0778 13.0408 13.9747 13.2861 14.9047C13.6525 16.3083 13.9223 17.7354 14.0938 19.1759C13.1061 19.5543 12.0576 19.7489 11 19.7502ZM15.7306 18.3556C15.5595 16.9001 15.2871 15.4584 14.9155 14.0408C14.728 13.3297 14.5166 12.6406 14.2869 11.968C16.0039 11.8273 18.0603 11.8475 19.6953 11.968C19.5512 13.2606 19.1206 14.5047 18.4347 15.6097C17.7488 16.7148 16.825 17.6529 15.7306 18.3556Z"/>
</symbol><symbol viewBox="0 0 22 22" id="facebook" xmlns="http://www.w3.org/2000/svg">
<path fill-rule="evenodd" clip-rule="evenodd" d="M21.5 11.0637C21.5 5.26528 16.7984 0.563721 11 0.563721C5.20156 0.563721 0.5 5.26528 0.5 11.0637C0.5 16.3043 4.33906 20.6483 9.35938 21.4367V14.0998H6.69266V11.0637H9.35938V8.75044C9.35938 6.11934 10.9273 4.66481 13.3255 4.66481C14.4744 4.66481 15.6763 4.87013 15.6763 4.87013V7.45435H14.3516C13.048 7.45435 12.6402 8.26341 12.6402 9.09497V11.0637H15.552L15.087 14.0998H12.6406V21.4376C17.6609 20.6497 21.5 16.3058 21.5 11.0637Z"/>
</symbol><symbol viewBox="0 0 22 22" id="github" xmlns="http://www.w3.org/2000/svg">
<path d="M11 0.5C5.20156 0.5 0.5 5.32344 0.5 11.2672C0.5 16.025 3.50937 20.0562 7.68125 21.4812C7.73977 21.494 7.79949 21.5002 7.85938 21.5C8.24844 21.5 8.39844 21.2141 8.39844 20.9656C8.39844 20.7078 8.38906 20.0328 8.38437 19.1328C8.03705 19.2142 7.68173 19.2567 7.325 19.2594C5.30469 19.2594 4.84531 17.6891 4.84531 17.6891C4.36719 16.4469 3.67813 16.1141 3.67813 16.1141C2.76406 15.4719 3.67344 15.4531 3.74375 15.4531H3.74844C4.80313 15.5469 5.35625 16.5687 5.35625 16.5687C5.88125 17.4875 6.58437 17.7453 7.2125 17.7453C7.62783 17.737 8.03673 17.6412 8.4125 17.4641C8.50625 16.7703 8.77812 16.2969 9.07812 16.025C6.74844 15.7531 4.29688 14.8297 4.29688 10.7047C4.29688 9.52812 4.70469 8.56719 5.375 7.81719C5.26719 7.54531 4.90625 6.44844 5.47812 4.96719C5.55483 4.94883 5.63367 4.94095 5.7125 4.94375C6.09219 4.94375 6.95 5.08906 8.36563 6.07344C10.0857 5.59218 11.9049 5.59218 13.625 6.07344C15.0406 5.08906 15.8984 4.94375 16.2781 4.94375C16.357 4.94095 16.4358 4.94883 16.5125 4.96719C17.0844 6.44844 16.7234 7.54531 16.6156 7.81719C17.2859 8.57187 17.6937 9.53281 17.6937 10.7047C17.6937 14.8391 15.2375 15.7484 12.8984 16.0156C13.2734 16.3484 13.6109 17.0047 13.6109 18.0078C13.6109 19.4469 13.5969 20.6094 13.5969 20.9609C13.5969 21.2141 13.7422 21.5 14.1312 21.5C14.1942 21.5003 14.2571 21.494 14.3187 21.4812C18.4953 20.0562 21.5 16.0203 21.5 11.2672C21.5 5.32344 16.7984 0.5 11 0.5Z"/>
</symbol><symbol viewBox="0 0 20 20" id="instagram" xmlns="http://www.w3.org/2000/svg">
<path d="M9.99999 6.87579C8.27968 6.87579 6.87577 8.2797 6.87577 10C6.87577 11.7203 8.27968 13.1242 9.99999 13.1242C11.7203 13.1242 13.1242 11.7203 13.1242 10C13.1242 8.2797 11.7203 6.87579 9.99999 6.87579ZM19.3703 10C19.3703 8.70626 19.382 7.42423 19.3094 6.13283C19.2367 4.63283 18.8945 3.30158 17.7976 2.2047C16.6984 1.10548 15.3695 0.765639 13.8695 0.692982C12.5758 0.620326 11.2937 0.632045 10.0023 0.632045C8.70858 0.632045 7.42655 0.620326 6.13515 0.692982C4.63515 0.765639 3.3039 1.10783 2.20702 2.2047C1.1078 3.30392 0.767958 4.63283 0.695302 6.13283C0.622645 7.42658 0.634364 8.70861 0.634364 10C0.634364 11.2914 0.622645 12.5758 0.695302 13.8672C0.767958 15.3672 1.11015 16.6985 2.20702 17.7953C3.30624 18.8945 4.63515 19.2344 6.13515 19.307C7.4289 19.3797 8.71093 19.368 10.0023 19.368C11.2961 19.368 12.5781 19.3797 13.8695 19.307C15.3695 19.2344 16.7008 18.8922 17.7976 17.7953C18.8969 16.6961 19.2367 15.3672 19.3094 13.8672C19.3844 12.5758 19.3703 11.2938 19.3703 10ZM9.99999 14.807C7.33983 14.807 5.19296 12.6602 5.19296 10C5.19296 7.33986 7.33983 5.19298 9.99999 5.19298C12.6601 5.19298 14.807 7.33986 14.807 10C14.807 12.6602 12.6601 14.807 9.99999 14.807ZM15.0039 6.11876C14.3828 6.11876 13.8812 5.6172 13.8812 4.99611C13.8812 4.37501 14.3828 3.87345 15.0039 3.87345C15.625 3.87345 16.1266 4.37501 16.1266 4.99611C16.1267 5.14359 16.0978 5.28966 16.0415 5.42595C15.9851 5.56224 15.9024 5.68607 15.7981 5.79036C15.6939 5.89464 15.57 5.97733 15.4337 6.03368C15.2974 6.09004 15.1514 6.11895 15.0039 6.11876Z"/>
</symbol><symbol viewBox="0 0 20 20" id="linkedin" xmlns="http://www.w3.org/2000/svg">
<path fill-rule="evenodd" clip-rule="evenodd" d="M7.429 6.969H11.143V8.819C11.678 7.755 13.05 6.799 15.111 6.799C19.062 6.799 20 8.917 20 12.803V20H16V13.688C16 11.475 15.465 10.227 14.103 10.227C12.214 10.227 11.429 11.572 11.429 13.687V20H7.429V6.969ZM0.57 19.83H4.57V6.799H0.57V19.83ZM5.143 2.55C5.14315 2.88528 5.07666 3.21724 4.94739 3.52659C4.81812 3.83594 4.62865 4.11651 4.39 4.352C3.9064 4.83262 3.25181 5.10165 2.57 5.1C1.88939 5.09954 1.23631 4.8312 0.752 4.353C0.514211 4.11671 0.325386 3.83582 0.196344 3.52643C0.0673015 3.21704 0.000579132 2.88522 0 2.55C0 1.873 0.27 1.225 0.753 0.747C1.23689 0.268158 1.89024 -0.000299211 2.571 2.50265e-07C3.253 2.50265e-07 3.907 0.269 4.39 0.747C4.872 1.225 5.143 1.873 5.143 2.55Z"/>
</symbol><symbol viewBox="0 0 22 24" id="play" xmlns="http://www.w3.org/2000/svg">
<path d="M1.5603 23.2497C1.31166 23.2497 1.07321 23.1509 0.89739 22.9751C0.721575 22.7993 0.622803 22.5609 0.622803 22.3122V1.68722C0.622831 1.52431 0.66531 1.36422 0.746053 1.22272C0.826796 1.08123 0.943017 0.963221 1.08326 0.880325C1.2235 0.797428 1.38292 0.752507 1.54581 0.74999C1.70871 0.747472 1.86944 0.787445 2.01218 0.865968L20.7622 11.1785C20.9092 11.2594 21.0317 11.3783 21.1171 11.5227C21.2025 11.6672 21.2475 11.8319 21.2475 11.9997C21.2475 12.1675 21.2025 12.3322 21.1171 12.4767C21.0317 12.6211 20.9092 12.74 20.7622 12.821L2.01218 23.1335C1.87376 23.2097 1.71832 23.2497 1.5603 23.2497Z"/>
</symbol><symbol viewBox="0 0 22 24" id="send" xmlns="http://www.w3.org/2000/svg">
<path d="M20.7391 0.93077C20.6001 0.815358 20.4312 0.741828 20.252 0.718748C20.0728 0.695668 19.8907 0.723989 19.727 0.800411L0.0809937 10.0218V11.8062L8.33273 15.1068L13.6257 23.25H15.4104L21.0494 1.9031C21.0952 1.72828 21.0903 1.54407 21.0353 1.37192C20.9804 1.19977 20.8777 1.04678 20.7391 0.93077ZM14.3085 21.5481L9.75895 14.5486L16.7599 6.88066L15.6522 5.86929L8.59645 13.597L1.79287 10.8755L19.298 2.65872L14.3085 21.5481Z"/>
</symbol><symbol viewBox="0 0 28 18" id="slider-arrow" xmlns="http://www.w3.org/2000/svg">
<path fill-rule="evenodd" clip-rule="evenodd" d="M0.875 9.00002C0.875 8.75138 0.973772 8.51293 1.14959 8.33711C1.3254 8.1613 1.56386 8.06252 1.8125 8.06252H23.9244L18.0238 2.16377C17.8477 1.98774 17.7488 1.74898 17.7488 1.50002C17.7488 1.25107 17.8477 1.01231 18.0238 0.836274C18.1998 0.660237 18.4385 0.56134 18.6875 0.56134C18.9365 0.56134 19.1752 0.660237 19.3512 0.836274L26.8512 8.33627C26.9386 8.42336 27.0078 8.52681 27.0551 8.64071C27.1023 8.75461 27.1267 8.87671 27.1267 9.00002C27.1267 9.12334 27.1023 9.24544 27.0551 9.35934C27.0078 9.47323 26.9386 9.57669 26.8512 9.66377L19.3512 17.1638C19.1752 17.3398 18.9365 17.4387 18.6875 17.4387C18.4385 17.4387 18.1998 17.3398 18.0238 17.1638C17.8477 16.9877 17.7488 16.749 17.7488 16.5C17.7488 16.2511 17.8477 16.0123 18.0238 15.8363L23.9244 9.93752H1.8125C1.56386 9.93752 1.3254 9.83875 1.14959 9.66294C0.973772 9.48712 0.875 9.24866 0.875 9.00002Z"/>
</symbol><symbol viewBox="0 0 18 20" id="tiktok" xmlns="http://www.w3.org/2000/svg">
<path d="M16.59 4.69C15.5932 4.47079 14.6914 3.94144 14.0141 3.17789C13.3368 2.41435 12.9187 1.45587 12.82 0.44V0H9.36999V13.67C9.37069 14.2766 9.18053 14.868 8.82643 15.3604C8.47234 15.8529 7.97227 16.2215 7.39706 16.414C6.82184 16.6065 6.20065 16.6131 5.62147 16.4329C5.04229 16.2527 4.53449 15.8948 4.16999 15.41C3.84344 14.9808 3.64348 14.4689 3.59272 13.932C3.54196 13.3951 3.64243 12.8548 3.88277 12.372C4.12311 11.8892 4.49372 11.4834 4.9527 11.2003C5.41169 10.9172 5.94072 10.7681 6.47999 10.77C6.77823 10.7683 7.07499 10.8121 7.35999 10.9V7.4C7.02833 7.35892 6.6941 7.34221 6.35999 7.35C5.1293 7.38288 3.93491 7.77393 2.92308 8.47527C1.91124 9.1766 1.12588 10.1578 0.663169 11.2986C0.200455 12.4395 0.0804708 13.6905 0.317909 14.8986C0.555348 16.1066 1.1399 17.2191 1.99999 18.1C2.88148 18.9962 4.00948 19.6101 5.24069 19.8638C6.47189 20.1175 7.7507 19.9994 8.91465 19.5246C10.0786 19.0498 11.0751 18.2397 11.7776 17.1973C12.4801 16.1548 12.8569 14.9271 12.86 13.67V6.67C14.2515 7.66395 15.92 8.19564 17.63 8.19V4.79C17.2941 4.79138 16.959 4.75787 16.63 4.69H16.59Z"/>
</symbol><symbol viewBox="0 0 24 18" id="twitter" xmlns="http://www.w3.org/2000/svg">
<path d="M23.25 2.13258C22.406 2.4993 21.513 2.74091 20.5992 2.84976C21.5595 2.28744 22.2817 1.39409 22.6303 0.337264C21.7224 0.868166 20.7307 1.24067 19.6978 1.43883C19.2629 0.982981 18.7397 0.620344 18.1603 0.372957C17.5808 0.125569 16.9571 -0.0014007 16.327 -0.000236203C13.7761 -0.000236203 11.7117 2.03414 11.7117 4.54195C11.7099 4.89078 11.7499 5.23857 11.8308 5.57789C10.0016 5.49214 8.2104 5.02551 6.57187 4.20785C4.93333 3.3902 3.48351 2.23953 2.31516 0.829451C1.90527 1.52044 1.6885 2.30885 1.6875 3.11226C1.6875 4.68726 2.50922 6.07945 3.75 6.89508C3.01487 6.87763 2.29481 6.68306 1.65094 6.32789V6.38414C1.65094 8.58726 3.24469 10.4201 5.35406 10.8373C4.9574 10.943 4.54864 10.9966 4.13812 10.9966C3.84683 10.9971 3.5562 10.9689 3.27047 10.9123C3.85687 12.717 5.56359 14.0295 7.58531 14.067C5.94252 15.333 3.9256 16.0173 1.85156 16.0123C1.48341 16.0117 1.11561 15.9898 0.75 15.9466C2.85993 17.2939 5.31255 18.0066 7.81594 17.9998C16.3172 17.9998 20.9616 11.0763 20.9616 5.07164C20.9616 4.87476 20.9564 4.67789 20.947 4.4857C21.8485 3.84448 22.6283 3.04763 23.25 2.13258Z"/>
</symbol><symbol viewBox="0 0 22 16" id="youtube" xmlns="http://www.w3.org/2000/svg">
<path d="M21.0617 2.93984C20.9422 2.49462 20.7078 2.0886 20.382 1.76243C20.0563 1.43625 19.6505 1.20136 19.2055 1.08125C17.5672 0.640625 11 0.640625 11 0.640625C11 0.640625 4.43281 0.640625 2.79453 1.07891C2.34927 1.19862 1.94334 1.43339 1.61751 1.75962C1.29169 2.08586 1.05744 2.49208 0.938281 2.9375C0.5 4.57812 0.5 8 0.5 8C0.5 8 0.5 11.4219 0.938281 13.0602C1.17969 13.9648 1.89219 14.6773 2.79453 14.9188C4.43281 15.3594 11 15.3594 11 15.3594C11 15.3594 17.5672 15.3594 19.2055 14.9188C20.1102 14.6773 20.8203 13.9648 21.0617 13.0602C21.5 11.4219 21.5 8 21.5 8C21.5 8 21.5 4.57813 21.0617 2.93984ZM8.91406 11.1406V4.85938L14.3516 7.97656L8.91406 11.1406Z"/>
</symbol></svg>